<svg class="typst-doc" viewBox="0 0 100.63703305156272 102.00613372673259" width="100.63703305156272pt" height="102.00613372673259pt" xmlns="http://www.w3.org/2000/svg" xmlns:xlink="http://www.w3.org/1999/xlink" xmlns:h5="http://www.w3.org/1999/xhtml">
    <g>
        <g transform="translate(11 11)">
            <g class="typst-group">
                <g>
                    <g transform="translate(0 0)">
                        <path class="typst-shape" fill="#2cb4d7" fill-rule="nonzero" d="M 78.63703 29.650305 C 73.441696 10.261039 54.68047 -2.2748117 34.778954 0.34527242 C 34.778954 0.34527242 34.778954 0.34527242 34.778954 0.34527242 C 14.877437 2.9653566 0.000000000000021316282 19.929821 0 40.003067 C 0 40.003067 0 40.003067 0 40.003067 C -0.000000000000014210855 60.076313 14.877437 77.04078 34.778954 79.66086 C 34.778954 79.66086 34.778954 79.66086 34.778954 79.66086 C 54.68047 82.280945 73.441696 69.745094 78.63703 50.355827 C 78.63703 50.355827 78.63703 50.355827 78.63703 50.355827 C 78.63703 50.355827 78.63703 50.355827 78.63703 50.355827 C 78.63703 50.355827 63.18222 46.214725 63.18222 46.214725 C 63.18222 46.214725 63.18222 46.214725 63.18222 46.214725 C 61.307934 53.20966 54.969097 58.07362 47.727406 58.07362 C 47.727406 58.07362 47.727406 58.07362 47.727406 58.07362 C 47.727406 58.07362 41.327408 58.07362 41.327408 58.07362 C 41.327408 58.07362 41.327408 58.07362 41.327408 58.07362 C 40.443752 58.07362 39.727406 58.789963 39.727406 59.67362 C 39.727406 59.67362 39.727406 59.67362 39.727406 59.67362 C 39.727406 60.557274 39.011063 61.27362 38.127407 61.27362 C 38.127407 61.27362 38.127407 61.27362 38.127407 61.27362 C 38.127407 61.27362 31.727407 61.27362 31.727407 61.27362 C 31.727407 61.27362 31.727407 61.27362 31.727407 61.27362 C 30.843752 61.27362 30.127407 60.557274 30.127407 59.67362 C 30.127407 59.67362 30.127407 59.67362 30.127407 59.67362 C 30.127407 59.67362 30.127407 51.67362 30.127407 51.67362 C 30.127407 51.67362 15.7274065 51.67362 15.7274065 51.67362 C 15.7274065 51.67362 15.7274065 51.67362 15.7274065 51.67362 C 13.730986 49.294376 13.730986 45.82518 15.7274065 43.44594 C 15.7274065 43.44594 15.7274065 43.44594 15.7274065 43.44594 C 15.7274065 43.44594 30.127407 43.44594 30.127407 43.44594 C 30.127407 43.44594 30.127407 36.725937 30.127407 36.725937 C 30.127407 36.725937 15.7274065 36.725937 15.7274065 36.725937 C 15.7274065 36.725937 15.7274065 36.725937 15.7274065 36.725937 C 13.730986 34.346695 13.730986 30.877499 15.7274065 28.498257 C 15.7274065 28.498257 15.7274065 28.498257 15.7274065 28.498257 C 15.7274065 28.498257 30.127407 28.498257 30.127407 28.498257 C 30.127407 28.498257 30.127407 20.498257 30.127407 20.498257 C 30.127407 20.498257 30.127407 20.498257 30.127407 20.498257 C 30.127407 19.614601 30.843752 18.898256 31.727407 18.898256 C 31.727407 18.898256 31.727407 18.898256 31.727407 18.898256 C 31.727407 18.898256 38.127407 18.898256 38.127407 18.898256 C 38.127407 18.898256 38.127407 18.898256 38.127407 18.898256 C 39.011063 18.898256 39.727406 19.614601 39.727406 20.498257 C 39.727406 20.498257 39.727406 20.498257 39.727406 20.498257 C 39.727406 21.381912 40.443752 22.098257 41.327408 22.098257 C 41.327408 22.098257 41.327408 22.098257 41.327408 22.098257 C 41.327408 22.098257 47.727406 22.098257 47.727406 22.098257 C 47.727406 22.098257 47.727406 22.098257 47.727406 22.098257 C 54.969097 22.098257 61.307934 26.962215 63.18222 33.957153 C 63.18222 33.957153 63.18222 33.957153 63.18222 33.957153 C 63.18222 33.957153 78.63703 29.650305 78.63703 29.650305 C 78.63703 29.650305 78.63703 29.650305 78.63703 29.650305 Z "/>
                    </g>
                </g>
            </g>
        </g>
    </g>
</svg>
